<?xml version="1.0" encoding="UTF-8" standalone="no"?>
<!DOCTYPE svg PUBLIC "-//W3C//DTD SVG 1.1//EN" "http://www.w3.org/Graphics/SVG/1.1/DTD/svg11.dtd">
<svg width="100%" height="100%" viewBox="0 0 50 50" version="1.1" xmlns="http://www.w3.org/2000/svg" xmlns:xlink="http://www.w3.org/1999/xlink" xml:space="preserve" style="fill-rule:evenodd;clip-rule:evenodd;stroke-linejoin:round;stroke-miterlimit:2;">
    <g transform="matrix(0.774111,0,0,0.791275,-32.4178,-7.97143)">
        <ellipse cx="74.173" cy="41.669" rx="32.295" ry="31.595" style="fill:white;fill-opacity:0;"/>
        <path d="M81.444,72.458C79.298,72.942 77.069,73.216 74.782,73.256L74.658,66.681C76.468,66.648 78.233,66.432 79.934,66.048L81.444,72.458ZM61.671,70.804L64.278,64.742C65.892,65.407 67.591,65.913 69.355,66.242L68.095,72.701C65.864,72.285 63.715,71.645 61.671,70.804ZM93.544,66.943C91.76,68.254 89.833,69.389 87.789,70.319L84.949,64.36C86.567,63.622 88.093,62.723 89.506,61.685L93.544,66.943ZM50.702,63.36L55.587,58.843C56.807,60.106 58.16,61.245 59.623,62.238L55.791,67.64C53.945,66.388 52.24,64.952 50.702,63.36ZM102.342,57.119C101.239,59.038 99.938,60.833 98.464,62.477L93.409,58.143C94.577,56.84 95.609,55.417 96.483,53.896L102.342,57.119ZM43.729,52.223L50.063,50.024C50.661,51.673 51.431,53.241 52.351,54.71L46.62,58.148C45.456,56.291 44.483,54.307 43.729,52.223ZM106.323,44.655C106.11,46.875 105.662,49.028 105.004,51.092L98.587,49.13C99.108,47.499 99.462,45.796 99.631,44.04L106.323,44.655ZM41.969,39.277L48.674,39.769C48.625,40.396 48.601,41.03 48.601,41.669C48.601,42.791 48.676,43.895 48.823,44.979L42.159,45.84C41.973,44.476 41.878,43.083 41.878,41.669C41.878,40.865 41.908,40.068 41.969,39.277ZM104.816,31.678C105.516,33.73 106.006,35.875 106.26,38.089L99.581,38.828C99.379,37.077 98.992,35.381 98.439,33.759L104.816,31.678ZM45.709,26.741L51.63,29.855C50.798,31.37 50.12,32.977 49.619,34.658L43.166,32.817C43.8,30.69 44.657,28.656 45.709,26.741ZM98.059,20.414C99.564,22.032 100.9,23.803 102.038,25.702L96.242,29.032C95.339,27.528 94.28,26.124 93.087,24.842L98.059,20.414ZM54.317,16.758L58.456,21.941C57.053,23.012 55.768,24.224 54.621,25.553L49.484,21.313C50.929,19.636 52.55,18.108 54.317,16.758ZM87.234,12.771C89.295,13.665 91.243,14.763 93.052,16.042L89.117,21.372C87.685,20.361 86.142,19.49 84.51,18.782L87.234,12.771ZM66.309,11.021L67.943,17.399C66.205,17.825 64.538,18.426 62.961,19.181L60.006,13.275C62.001,12.319 64.111,11.558 66.309,11.021ZM72.954,10.099C73.358,10.082 73.764,10.074 74.173,10.074C76.461,10.074 78.695,10.308 80.848,10.753L79.463,17.188C77.756,16.836 75.986,16.652 74.173,16.652L73.203,16.669L72.954,10.099Z" style="fill:white;"/>
    </g>
</svg>
