<?xml version="1.0" encoding="UTF-8" standalone="no"?>
<!DOCTYPE svg PUBLIC "-//W3C//DTD SVG 1.1//EN" "http://www.w3.org/Graphics/SVG/1.1/DTD/svg11.dtd">
<svg width="100%" height="100%" viewBox="0 0 123 79" version="1.1" xmlns="http://www.w3.org/2000/svg" xmlns:xlink="http://www.w3.org/1999/xlink" xml:space="preserve" style="fill-rule:evenodd;clip-rule:evenodd;stroke-linejoin:round;stroke-miterlimit:2;">
    <g>
        <g>
            <g transform="matrix(1,0,0,1,0.980762,1.96152)">
                <text x="16.938px" y="61.074px" style="font-family:'ArialMT', 'Arial', sans-serif;font-size:30.467px;fill:white;">?</text>
            </g>
            <g transform="matrix(1,0,0,1,71.3154,1.96152)">
                <text x="16.938px" y="61.074px" style="font-family:'ArialMT', 'Arial', sans-serif;font-size:30.467px;fill:white;">?</text>
            </g>
            <path d="M50.57,17.2C40.73,10.31 31,8.79 20.94,11.42C23.14,6.13 26.45,2.66 30.34,1.03C35.85,-1.28 44.87,0.36 48.42,5.3C50.24,7.82 51.15,11.56 50.57,17.2ZM61.3,47.71C64.1,47.71 66.37,49.92 66.37,52.64C66.37,55.36 64.1,57.57 61.3,57.57C58.5,57.57 56.23,55.36 56.23,52.64C56.23,49.92 58.5,47.71 61.3,47.71ZM26.66,34.57C36.66,34.57 44.77,42.45 44.77,52.18C44.77,61.9 36.66,69.79 26.66,69.79C16.66,69.79 8.55,61.91 8.55,52.18C8.55,42.45 16.65,34.57 26.66,34.57ZM96.64,34.57C106.64,34.57 114.75,42.45 114.75,52.18C114.75,61.9 106.64,69.79 96.64,69.79C86.64,69.79 78.53,61.91 78.53,52.18C78.53,42.45 86.63,34.57 96.64,34.57ZM72.31,17.2C82.15,10.31 91.88,8.79 101.93,11.42C99.73,6.13 96.42,2.66 92.53,1.03C87.02,-1.28 78,0.36 74.46,5.3C72.64,7.82 71.73,11.56 72.31,17.2ZM107.57,17.4C104.15,13.88 98.61,12.29 90.94,12.63C82.25,13.06 73.07,16.69 70.12,24.92C67.65,19.5 55.23,19.5 52.77,24.92C49.82,16.69 40.64,13.05 31.95,12.63C24.28,12.29 18.75,13.89 15.32,17.4C10.5,23.86 0.96,40.74 0.16,48.99C-3.1,82.47 44.92,90.87 52.62,56.3C56.99,64.05 65.89,64.05 70.26,56.3C77.96,90.88 125.98,82.47 122.72,48.99C121.92,40.74 112.38,23.86 107.57,17.4Z" style="fill:white;"/>
        </g>
    </g>
</svg>
