<?xml version="1.0" encoding="UTF-8" standalone="no"?>
<!DOCTYPE svg PUBLIC "-//W3C//DTD SVG 1.1//EN" "http://www.w3.org/Graphics/SVG/1.1/DTD/svg11.dtd">
<svg width="100%" height="100%" viewBox="0 0 123 93" version="1.1" xmlns="http://www.w3.org/2000/svg" xmlns:xlink="http://www.w3.org/1999/xlink" xml:space="preserve" style="fill-rule:evenodd;clip-rule:evenodd;stroke-linejoin:round;stroke-miterlimit:2;">
    <path d="M93.65,71.49L82.56,71.49C81.627,72.823 80.627,74.157 79.56,75.49C78.45,76.85 77.25,78.21 75.98,79.57C74.71,80.93 73.54,82.07 72.21,83.33C71.13,84.363 70.007,85.383 68.84,86.39L69.77,86.22C70.41,86.09 71.06,85.94 71.71,85.77C72.36,85.6 73.01,85.43 73.65,85.23C74.29,85.03 74.91,84.82 75.55,84.59C76.19,84.36 76.8,84.1 77.41,83.83C78.02,83.56 78.67,83.28 79.26,82.99C79.85,82.7 80.46,82.39 81.05,82.07C81.64,81.75 82.22,81.43 82.78,81.07C83.34,80.71 83.91,80.38 84.44,80.07C84.97,79.76 85.5,79.29 86,78.9C86.5,78.51 87,78.11 87.53,77.7C88.06,77.29 88.53,76.87 89,76.43C89.47,75.99 90,75.54 90.42,75.08C90.84,74.62 91.13,74.35 91.42,73.99C91.71,73.63 92.1,73.25 92.42,72.87C92.74,72.49 92.94,72.26 93.19,71.95L93.56,71.49L93.65,71.49ZM16,56.75L10.68,35.49L18.32,35.49L20.76,48.49L20.92,48.49L23.63,35.49L31.05,35.49L33.88,48.34L34,48.34L36.32,35.49L44,35.49L38.69,56.75L30.44,56.75L27.44,45.34L27.22,45.34L24.22,56.75L16,56.75ZM50.09,56.75L44.78,35.49L52.42,35.49L54.85,48.49L55,48.49L57.71,35.49L65.13,35.49L68,48.34L68.17,48.34L70.49,35.49L78.1,35.49L72.79,56.75L64.54,56.75L61.54,45.34L61.32,45.34L58.32,56.75L50.09,56.75ZM84.19,56.75L78.88,35.49L86.52,35.49L88.95,48.49L89.11,48.49L91.83,35.49L99.25,35.49L102.07,48.34L102.23,48.34L104.56,35.49L112.2,35.49L106.88,56.75L98.63,56.75L95.63,45.34L95.41,45.34L92.41,56.75L84.19,56.75ZM9.48,22.19L22,22.19C22.38,21.57 22.77,20.94 23.18,20.33C23.59,19.72 24,19.13 24.44,18.54C24.88,17.95 25.32,17.38 25.78,16.81C26.24,16.24 26.73,15.68 27.23,15.14C27.73,14.6 28.23,14.03 28.78,13.51C29.29,12.98 29.78,12.51 30.35,11.99C30.92,11.47 31.44,10.99 32.01,10.55L33.75,9.2C34.35,8.76 34.95,8.34 35.54,7.95C36.13,7.56 36.78,7.13 37.41,6.75C38.04,6.37 38.69,6 39.41,5.64C40.13,5.28 40.72,4.95 41.41,4.64C42.1,4.33 42.78,4 43.46,3.71C44.17,3.4 44.88,3.12 45.58,2.87C46.28,2.62 47,2.27 47.76,2C48.52,1.73 49.22,1.57 49.95,1.38C50.68,1.19 51.41,1.03 52.17,0.87C53,0.76 53.7,0.63 54.45,0.51C55.2,0.39 56,0.31 56.73,0.23C57.46,0.15 58.29,0.1 59.07,0.06C59.85,0.02 60.66,0 61.44,0C63,0 64.58,0.08 66.13,0.23C66.91,0.31 67.68,0.4 68.43,0.51C69.18,0.62 69.94,0.76 70.7,0.91C71.46,1.06 72.17,1.22 72.9,1.41C73.63,1.6 74.35,1.79 75.07,2.01C75.79,2.23 76.5,2.48 77.19,2.73C77.88,2.98 78.58,3.26 79.27,3.55L79.48,3.65C80.14,3.93 80.79,4.23 81.48,4.55C82.17,4.87 82.82,5.22 83.48,5.55C84.13,5.91 84.78,6.28 85.41,6.66C86.05,7.05 86.68,7.45 87.3,7.85C87.92,8.25 88.49,8.67 89.07,9.1C89.65,9.53 90.24,9.99 90.81,10.45C91.38,10.91 91.94,11.4 92.49,11.9C93.04,12.4 93.59,12.9 94.11,13.44C94.62,13.95 95.11,14.44 95.62,15.01C96.13,15.58 96.62,16.1 97.06,16.67C97.5,17.24 97.97,17.81 98.41,18.41C98.85,19.01 99.27,19.61 99.68,20.22C100.09,20.84 100.49,21.46 100.86,22.07L113.4,22.07C118.599,22.075 122.875,26.351 122.88,31.55L122.88,60.45C122.871,62.955 121.871,65.358 120.1,67.13C118.333,68.902 115.933,69.902 113.43,69.91L100.89,69.91C100.51,70.54 100.12,71.16 99.71,71.78C99.3,72.4 98.89,72.98 98.45,73.57C98.01,74.16 97.57,74.73 97.11,75.29C96.63,75.87 96.11,76.43 95.66,76.97C95.16,77.52 94.66,78.06 94.14,78.57C93.633,79.09 93.113,79.59 92.58,80.07C92.04,80.56 91.49,81.07 90.92,81.51C90.35,81.95 89.77,82.42 89.18,82.86C88.59,83.3 87.98,83.72 87.37,84.13C86.76,84.54 86.14,84.94 85.51,85.32C84.88,85.7 84.22,86.07 83.51,86.43C82.8,86.79 82.19,87.13 81.51,87.43C80.83,87.73 80.14,88.07 79.51,88.37C78.88,88.67 78.1,88.95 77.38,89.22C76.66,89.49 75.94,89.72 75.21,89.95C74.48,90.18 73.75,90.38 73.03,90.57C72.31,90.76 71.55,90.92 70.79,91.08C70.03,91.24 69.28,91.37 68.53,91.48C67.78,91.59 67.01,91.68 66.23,91.76C64.67,91.91 63.1,91.99 61.52,91.99C60.74,91.99 59.95,91.99 59.16,91.93C58.37,91.87 57.61,91.84 56.83,91.76C56.05,91.68 55.28,91.59 54.53,91.48C53.78,91.37 53.03,91.23 52.26,91.08C51.49,90.93 50.71,91 50,90.84C49.29,90.68 48.55,90.45 47.83,90.23C47.11,90.01 46.41,89.77 45.72,89.52C45.03,89.27 44.31,88.98 43.62,88.68L43.42,88.59C42.76,88.31 42.1,88.01 41.42,87.68C40.74,87.35 40.1,87.03 39.42,86.68C38.74,86.33 38.12,85.96 37.49,85.57C36.86,85.18 36.19,84.77 35.57,84.36C34.95,83.95 34.37,83.54 33.78,83.11C33.19,82.68 32.62,82.23 32.05,81.76C31.48,81.29 30.92,80.76 30.37,80.3C29.82,79.84 29.26,79.3 28.75,78.77C28.23,78.26 27.75,77.77 27.24,77.2C26.73,76.63 26.24,76.11 25.8,75.54C25.36,74.97 24.89,74.39 24.45,73.8C24.01,73.21 23.59,72.6 23.19,71.99C22.79,71.38 22.4,70.73 22,70.1L9.48,70.1C4.267,70.084 -0.011,65.783 0,60.57L0,31.67C0.005,26.471 4.281,22.195 9.48,22.19ZM54.08,86.37C52.91,85.37 51.79,84.37 50.71,83.31C49.377,82.063 48.123,80.813 46.95,79.56C45.68,78.2 44.48,76.84 43.37,75.48C42.26,74.12 41.28,72.83 40.37,71.48L29.29,71.48L29.65,71.94L30.43,72.86C31.08,73.61 31.77,74.35 32.43,75.06C32.89,75.52 33.36,75.97 33.84,76.4C34.32,76.83 34.84,77.27 35.31,77.67C35.78,78.07 36.31,78.48 36.84,78.87C37.37,79.26 37.9,79.63 38.44,80C38.98,80.37 39.53,80.71 40.11,81.06C40.69,81.41 41.24,81.73 41.81,82.06C42.38,82.39 43.01,82.7 43.62,82.98C44.23,83.26 44.84,83.55 45.47,83.82L45.6,83.9C46.21,84.15 46.81,84.39 47.42,84.61C48.03,84.83 48.65,85.04 49.29,85.24C49.91,85.44 50.55,85.62 51.19,85.78C51.83,85.94 52.49,86.09 53.14,86.21L54,86.37L54.08,86.37ZM29.24,20.75L41,20.75C41.927,19.417 42.927,18.1 44,16.8C45.073,15.5 46.24,14.14 47.5,12.72C48.65,11.46 49.88,10.19 51.17,8.91C52.23,7.91 53.34,6.81 54.48,5.76L54,5.85L53.18,6C52.54,6.13 51.88,6.28 51.18,6.45C50.48,6.62 49.88,6.8 49.25,6.99C48.62,7.18 47.98,7.41 47.34,7.64C46.7,7.87 46.09,8.12 45.48,8.39C44.87,8.66 44.22,8.95 43.62,9.24C43.02,9.53 42.42,9.83 41.83,10.15C41.24,10.47 40.66,10.8 40.09,11.15C39.52,11.5 38.98,11.84 38.45,12.15C37.92,12.46 37.36,12.89 36.84,13.28C36.32,13.67 35.84,14.06 35.31,14.47C34.78,14.88 34.31,15.3 33.84,15.75C33.37,16.2 32.84,16.63 32.42,17.1C32.07,17.45 31.72,17.81 31.42,18.17C31.12,18.53 30.74,18.91 30.42,19.28L29.64,20.21L29.26,20.69L29.24,20.75ZM68.43,5.8C69.58,6.8 70.69,7.89 71.74,8.94C73.03,10.2 74.24,11.46 75.39,12.72C76.54,13.98 77.8,15.44 78.89,16.8C79.98,18.16 80.89,19.43 81.89,20.75L93.62,20.75L93.25,20.29C93,19.98 92.74,19.67 92.48,19.37C92.22,19.07 91.82,18.63 91.48,18.26C91.14,17.89 90.8,17.54 90.42,17.17C90.04,16.8 89.42,16.24 89,15.81C88.58,15.38 88,14.94 87.53,14.54C87.06,14.14 86.53,13.73 86,13.34C85.47,12.95 84.94,12.58 84.4,12.21C83.86,11.84 83.31,11.5 82.74,11.16C82.17,10.82 81.6,10.49 81.02,10.16C80.44,9.83 79.84,9.53 79.24,9.25C78.64,8.97 78,8.7 77.37,8.42L77.24,8.34C76.63,8.09 76.02,7.86 75.42,7.63C74.82,7.4 74.18,7.2 73.55,7C72.92,6.81 72.29,6.63 71.65,6.46C71.01,6.29 70.35,6.16 69.65,6.03L68.82,5.87L68.39,5.8L68.43,5.8ZM64,8.82L64,20.75L75.43,20.75C74.72,19.85 73.98,18.95 73.2,18.05C72.293,16.99 71.33,15.93 70.31,14.87C69.29,13.81 68.213,12.73 67.08,11.63C66.08,10.7 65.08,9.76 64.08,8.82L64,8.82ZM64,71.49L64,83.64C65.12,82.7 66.207,81.75 67.26,80.79C68.447,79.697 69.583,78.607 70.67,77.52C71.74,76.43 72.76,75.35 73.72,74.26C74.54,73.34 75.32,72.42 76.06,71.49L64,71.49ZM58.8,83.64L58.8,71.49L46.78,71.49C47.52,72.42 48.29,73.35 49.11,74.27C50.11,75.35 51.11,76.43 52.11,77.51C53.11,78.59 54.33,79.69 55.53,80.79C56.53,81.74 57.67,82.69 58.8,83.64ZM58.8,20.75L58.8,8.82C57.75,9.76 56.74,10.69 55.8,11.62C54.66,12.713 53.58,13.797 52.56,14.87C51.56,15.93 50.56,16.99 49.67,18.05C48.89,18.95 48.15,19.85 47.45,20.75L58.8,20.75ZM9.48,26.41L113.4,26.41C116.281,26.421 118.649,28.789 118.66,31.67L118.66,60.57C118.649,63.451 116.281,65.819 113.4,65.83L9.48,65.83C6.599,65.819 4.231,63.451 4.22,60.57L4.22,31.67C4.231,28.789 6.599,26.421 9.48,26.41Z" style="fill:white;"/>
</svg>
