<?xml version="1.0" encoding="UTF-8" standalone="no"?>
<!DOCTYPE svg PUBLIC "-//W3C//DTD SVG 1.1//EN" "http://www.w3.org/Graphics/SVG/1.1/DTD/svg11.dtd">
<svg width="100%" height="100%" viewBox="0 0 55 50" version="1.1" xmlns="http://www.w3.org/2000/svg" xmlns:xlink="http://www.w3.org/1999/xlink" xml:space="preserve" style="fill-rule:evenodd;clip-rule:evenodd;stroke-linecap:square;stroke-linejoin:round;stroke-miterlimit:1.5;">
    <g transform="matrix(1,0,0,1,-5.65756,-9.05219)">
        <g transform="matrix(0.493108,0,0,0.501913,5.85869,28.4676)">
            <ellipse cx="16.277" cy="51.321" rx="5.07" ry="4.981" style="fill:white;fill-opacity:0;stroke:white;stroke-width:4.02px;"/>
        </g>
        <g transform="matrix(0.0141219,0,0,0.0141219,50.3399,10.9306)">
            <g id="Octicons-git-branch.svg">
                <g>
                    <path d="M512,192C441,192 384,249 384,320C384,367 410,408 448,430L448,448C448,512 384,576 320,576C267,576 225,587 192,605L192,302C230,280 256,239 256,192C256,121 199,64 128,64C57,64 0,121 0,192C0,239 26,280 64,302L64,721C26,743 0,784 0,831C0,902 57,959 128,959C199,959 256,902 256,831C256,797 243,767 222,744C241,721 271,703 320,703C448,703 576,575 576,447L576,429C614,407 640,366 640,319C640,248 583,191 512,191L512,192ZM128,128C163,128 192,157 192,192C192,227 163,256 128,256C93,256 64,227 64,192C64,157 93,128 128,128ZM128,896C93,896 64,867 64,832C64,797 93,768 128,768C163,768 192,797 192,832C192,867 163,896 128,896ZM512,384C477,384 448,355 448,320C448,285 477,256 512,256C547,256 576,285 576,320C576,355 547,384 512,384Z" style="fill:white;fill-rule:nonzero;"/>
                </g>
            </g>
        </g>
        <path d="M11.385,48.23C9.267,42.114 5.22,24.768 19.4,24.75C30.612,24.736 28.608,44.761 41.879,45.833C48.345,46.14 49.316,44.232 51.235,42.264C54.769,39.15 57.201,36.345 37.332,27.879C23.755,20.273 36.242,13.24 44.703,15.266" style="fill:none;stroke:white;stroke-width:2px;stroke-linecap:round;stroke-linejoin:miter;stroke-dasharray:0,4,4,0;stroke-dashoffset:2;"/>
        <g transform="matrix(-0.0893378,0.28246,-0.28246,-0.0893378,56.3186,4.66466)">
            <path d="M45.475,15.614L56.33,34.315L34.621,34.315L45.475,15.614Z" style="fill:white;"/>
            <path d="M45.475,15.614L56.33,34.315L34.621,34.315L45.475,15.614Z" style="fill-opacity:0;"/>
        </g>
    </g>
</svg>
