<?xml version="1.0" encoding="UTF-8" standalone="no"?>
<!DOCTYPE svg PUBLIC "-//W3C//DTD SVG 1.1//EN" "http://www.w3.org/Graphics/SVG/1.1/DTD/svg11.dtd">
<svg width="100%" height="100%" viewBox="0 0 123 79" version="1.1" xmlns="http://www.w3.org/2000/svg" xmlns:xlink="http://www.w3.org/1999/xlink" xml:space="preserve" style="fill-rule:evenodd;clip-rule:evenodd;stroke-linejoin:round;stroke-miterlimit:2;">
    <g>
        <g>
            <path d="M50.57,17.2C40.73,10.31 31,8.79 20.94,11.42C23.14,6.13 26.45,2.66 30.34,1.03C35.85,-1.28 44.87,0.36 48.42,5.3C50.24,7.82 51.15,11.56 50.57,17.2ZM61.3,47.71C64.1,47.71 66.37,49.92 66.37,52.64C66.37,55.36 64.1,57.57 61.3,57.57C58.5,57.57 56.23,55.36 56.23,52.64C56.23,49.92 58.5,47.71 61.3,47.71ZM26.66,34.57C36.66,34.57 44.77,42.45 44.77,52.18C44.77,61.9 36.66,69.79 26.66,69.79C16.66,69.79 8.55,61.91 8.55,52.18C8.55,42.45 16.65,34.57 26.66,34.57ZM96.64,34.57C106.64,34.57 114.75,42.45 114.75,52.18C114.75,61.9 106.64,69.79 96.64,69.79C86.64,69.79 78.53,61.91 78.53,52.18C78.53,42.45 86.63,34.57 96.64,34.57ZM72.31,17.2C82.15,10.31 91.88,8.79 101.93,11.42C99.73,6.13 96.42,2.66 92.53,1.03C87.02,-1.28 78,0.36 74.46,5.3C72.64,7.82 71.73,11.56 72.31,17.2ZM107.57,17.4C104.15,13.88 98.61,12.29 90.94,12.63C82.25,13.06 73.07,16.69 70.12,24.92C67.65,19.5 55.23,19.5 52.77,24.92C49.82,16.69 40.64,13.05 31.95,12.63C24.28,12.29 18.75,13.89 15.32,17.4C10.5,23.86 0.96,40.74 0.16,48.99C-3.1,82.47 44.92,90.87 52.62,56.3C56.99,64.05 65.89,64.05 70.26,56.3C77.96,90.88 125.98,82.47 122.72,48.99C121.92,40.74 112.38,23.86 107.57,17.4Z" style="fill:white;"/>
            <g>
                <g transform="matrix(1.2624,0,0,1.2624,-3.93463,-15.0822)">
                    <path d="M17.606,57.434L16.456,58.458L15.034,66.389L17.801,66.231L17.606,57.434Z" style="fill:white;"/>
                </g>
                <g transform="matrix(0.398312,1.06475,-1.06475,0.398312,73.8067,7.90566)">
                    <path d="M26.966,54.039L26.286,53.456L23.686,61.001L25.508,62.326L26.966,54.039Z" style="fill:white;"/>
                </g>
                <g transform="matrix(0.699453,0,0,2.17945,8.21736,-67.6118)">
                    <path d="M27.341,53.936L25.291,57.325L27.366,57.261L27.341,53.936Z" style="fill:white;"/>
                </g>
            </g>
            <path d="M22.095,58.689L20.801,58.689L21.652,64.014L22.095,63.149L22.095,58.689Z" style="fill:white;"/>
            <path d="M25.341,66.548L22.095,63.131L21.651,64.014L25.341,66.548Z" style="fill:white;"/>
            <g transform="matrix(0.742925,0.669374,0.669374,-0.742925,44.7361,72.4315)">
                <g transform="matrix(1.2624,0,0,1.2624,-3.93463,-15.0822)">
                    <path d="M17.606,57.434L16.456,58.458L15.034,66.389L17.801,66.231L17.606,57.434Z" style="fill:white;"/>
                </g>
                <g transform="matrix(0.398312,1.06475,-1.06475,0.398312,73.8067,7.90566)">
                    <path d="M26.966,54.039L26.286,53.456L23.686,61.001L25.508,62.326L26.966,54.039Z" style="fill:white;"/>
                </g>
                <g transform="matrix(0.699453,0,0,2.17945,8.21736,-67.6118)">
                    <path d="M29.558,51.056L25.291,57.325L27.366,57.261L29.558,51.056Z" style="fill:white;"/>
                </g>
            </g>
            <path d="M14.122,50.332L7.319,51.434L7.319,53.855L15.362,50.618L14.122,50.332Z" style="fill:white;"/>
            <g transform="matrix(0.720154,-0.693814,0.693814,0.720154,-31.643,25.105)">
                <path d="M16.148,50.987L15.221,50.573L14.381,54.345L15.015,53.589L16.148,50.987Z" style="fill:white;"/>
            </g>
            <path d="M19.944,52.851L16.307,53.27L16.419,54.264L19.944,52.851Z" style="fill:white;"/>
        </g>
    </g>
</svg>
