<svg width="100%" height="100%" viewBox="0 0 70 70" version="1.1" xmlns="http://www.w3.org/2000/svg" xmlns:xlink="http://www.w3.org/1999/xlink" xml:space="preserve" style="fill-rule:evenodd;clip-rule:evenodd;stroke-linejoin:round;stroke-miterlimit:2;">
    <path d="M35,0C54.317,0 70,15.683 70,35C70,54.317 54.317,70 35,70C15.683,70 0,54.317 0,35C0,15.683 15.683,0 35,0ZM60,25C60,19.481 55.519,15 50,15L20,15C14.481,15 10,19.481 10,25L10,45C10,50.519 14.481,55 20,55L50,55C55.519,55 60,50.519 60,45L60,25ZM54.715,25.447L42.078,38.093C38.177,41.997 31.84,41.999 27.936,38.098L15.283,25.453C15.099,26.104 15,26.791 15,27.5L15,42.5C15,46.639 18.361,50 22.5,50L47.5,50C51.639,50 55,46.639 55,42.5L55,27.5C55,26.788 54.901,26.1 54.715,25.447ZM51.708,21.292C50.507,20.477 49.059,20 47.5,20L22.5,20C20.922,20 19.457,20.488 18.249,21.322C18.487,21.58 18.768,21.867 19.092,22.191L29.702,32.794C32.63,35.72 37.383,35.718 40.309,32.79L50.912,22.18C51.25,21.841 51.513,21.549 51.708,21.292Z" fill="#FFFFFF" />
</svg>