<svg width="100%" height="100%" viewBox="0 0 70 70" version="1.1" xmlns="http://www.w3.org/2000/svg" xmlns:xlink="http://www.w3.org/1999/xlink" xml:space="preserve" style="fill-rule:evenodd;clip-rule:evenodd;stroke-linejoin:round;stroke-miterlimit:2;">
    <path d="M35,0C54.317,0 70,15.683 70,35C70,54.317 54.317,70 35,70C15.683,70 0,54.317 0,35C0,15.683 15.683,0 35,0ZM16.294,22.5C20.332,16.471 27.206,12.5 35,12.5C42.794,12.5 49.668,16.472 53.706,22.5L58.728,22.5C62.177,22.5 64.978,25.301 64.978,28.75L64.978,41.25C64.978,44.699 62.177,47.5 58.728,47.5L53.706,47.5C49.668,53.528 42.794,57.5 35,57.5C27.206,57.5 20.332,53.529 16.294,47.5L11.272,47.5C7.823,47.5 5.022,44.699 5.022,41.25L5.022,28.75C5.022,25.301 7.823,22.5 11.272,22.5L16.294,22.5ZM36.25,47.5L42.804,47.5C41.217,51.458 38.893,54.184 36.25,54.845L36.25,47.5ZM27.196,47.5L33.75,47.5L33.75,54.845C31.107,54.184 28.783,51.458 27.196,47.5ZM45.454,47.5L50.609,47.5C48.39,50.266 45.451,52.431 42.078,53.71C43.414,52.054 44.562,49.942 45.454,47.5ZM24.546,47.5C25.438,49.942 26.586,52.054 27.922,53.709C27.069,53.386 26.238,53.004 25.436,52.566C24.469,52.038 23.546,51.43 22.678,50.75C21.877,50.122 21.124,49.433 20.426,48.691C20.066,48.308 19.721,47.91 19.391,47.5L24.546,47.5ZM7.5,40C7.5,42.76 9.74,45 12.5,45L57.5,45C60.26,45 62.5,42.76 62.5,40L62.5,30C62.5,27.24 60.26,25 57.5,25L12.5,25C9.74,25 7.5,27.24 7.5,30L7.5,40ZM23.654,29.502L29.633,29.502L31.529,36.604L33.863,29.502L36.138,29.502L38.471,36.604L40.367,29.502L43.356,29.502L40.075,40.498L37.158,40.498L35,34.125L32.842,40.498L29.925,40.498L26.644,29.502L23.363,40.498L20.446,40.498L18.288,34.125L16.129,40.498L13.213,40.498L9.931,29.502L12.921,29.502L14.817,36.604L17.15,29.502L19.425,29.502L21.758,36.604L23.654,29.502ZM46.346,29.502L48.242,36.604L50.575,29.502L52.85,29.502L55.183,36.604L57.079,29.502L60.069,29.502L56.787,40.498L53.871,40.498L51.713,34.125L49.554,40.498L46.638,40.498L43.356,29.502L46.346,29.502ZM28.326,16.142C26.88,17.79 25.634,19.959 24.67,22.5L19.391,22.5C21.698,19.624 24.783,17.398 28.326,16.142ZM36.25,22.5L36.25,15.155C38.893,15.816 41.217,18.542 42.804,22.5L36.25,22.5ZM41.674,16.143C42.681,16.499 43.658,16.937 44.595,17.451C45.551,17.975 46.464,18.578 47.322,19.25C48.123,19.878 48.877,20.567 49.574,21.309C49.934,21.692 50.279,22.09 50.609,22.5L45.33,22.5C44.366,19.959 43.12,17.791 41.674,16.143ZM33.75,15.155L33.75,22.5L27.196,22.5C28.783,18.542 31.107,15.815 33.75,15.155Z" fill="#FFFFFF"/>
</svg>
