<svg width="100%" height="100%" viewBox="0 0 70 70" version="1.1" xmlns="http://www.w3.org/2000/svg" xmlns:xlink="http://www.w3.org/1999/xlink" xml:space="preserve" style="fill-rule:evenodd;clip-rule:evenodd;stroke-linejoin:round;stroke-miterlimit:2;">
    <path d="M35,0C54.317,0 70,15.683 70,35C70,54.317 54.317,70 35,70C15.683,70 0,54.317 0,35C0,15.683 15.683,0 35,0ZM31.727,40.207L44.148,57.988L57.969,57.988L39.421,31.436L56.463,12.012L52.367,12.012L37.606,28.837L25.852,12.012L12.031,12.012L29.911,37.608L12.031,57.988L16.126,57.988L31.727,40.207ZM34.007,37.608L46.251,55.136L51.881,55.136L37.141,34.035L34.007,37.608ZM35.326,31.436L23.749,14.864L18.119,14.864L32.191,35.009L35.326,31.436Z" fill="#FFFFFF"/>
</svg>
